<?xml version="1.0" encoding="UTF-8" standalone="no"?><!DOCTYPE svg PUBLIC "-//W3C//DTD SVG 1.1//EN" "http://www.w3.org/Graphics/SVG/1.1/DTD/svg11.dtd"><svg width="100%" height="100%" viewBox="0 0 1334 1286" version="1.1" xmlns="http://www.w3.org/2000/svg" xmlns:xlink="http://www.w3.org/1999/xlink" xml:space="preserve" xmlns:serif="http://www.serif.com/" style="fill-rule:evenodd;clip-rule:evenodd;stroke-linejoin:round;"><rect id="Artboard1" x="0" y="0" width="1333.07" height="1285.13" style="fill:none;"/><g><path d="M313.896,750.984c14.579,-2.262 26.135,-13.697 28.55,-28.252c25.778,-156.564 139.934,-250.742 272.917,-250.742c123.516,0 206.009,80.489 239.228,165.754c4.338,11.106 14.246,19.122 26.013,21.045c106.608,17.377 195.306,88.57 195.306,212.342c-0,126.65 -103.623,214.922 -230.274,214.922l-498.926,-0c-105.542,-0 -191.894,-52.665 -191.894,-168.867c-0,-103.346 82.45,-153.985 159.08,-166.202Z" style="fill:none;fill-rule:nonzero;stroke:#fff;stroke-width:68.23px;"/><g><path d="M941.157,675.398c41.845,-32.272 66.403,-82.224 66.403,-135.069c-0,-93.573 -77,-170.573 -170.573,-170.573c-70.478,0 -134.017,43.681 -159.259,109.484" style="fill:none;fill-rule:nonzero;stroke:#fff;stroke-width:68.23px;stroke-linecap:round;"/><path d="M1110.02,540.219l68.229,0" style="fill:none;fill-rule:nonzero;stroke:#fff;stroke-width:68.23px;stroke-linecap:round;"/><path d="M837.108,199.073l-0,68.23" style="fill:none;fill-rule:nonzero;stroke:#fff;stroke-width:68.23px;stroke-linecap:round;"/><path d="M595.875,298.987l48.251,48.25" style="fill:none;fill-rule:nonzero;stroke:#fff;stroke-width:68.23px;stroke-linecap:round;"/><path d="M1078.34,298.987l-48.25,48.25" style="fill:none;fill-rule:nonzero;stroke:#fff;stroke-width:68.23px;stroke-linecap:round;"/></g></g></svg>